<svg width="370" height="370" viewBox="0 0 370 370" fill="none" xmlns="http://www.w3.org/2000/svg">
<g clip-path="url(#clip0)">
<path d="M176.126 0H45.212C20.2513 0 0 20.2452 0 45.2059V176.12H176.12V0H176.126ZM129.598 97.6192H99.0875V128.276H79.5185V97.6192H49.0259V78.2087H79.5246V47.716H99.0935V78.2147H129.604V97.6192H129.598ZM370 45.2059C370 20.2452 349.755 0 324.794 0H193.886V176.12H370V45.2059ZM317.709 99.0143H243.399V76.9719H317.709V99.0143V99.0143ZM0 324.794C0 349.755 20.2513 370.006 45.2059 370.006H176.12V193.88H0V324.794ZM55.1792 242.199H77.965L89.8635 262.797L101.476 242.199H123.603L100.221 276.871L124.511 313.243H101.329L89.0715 291.852L76.7099 313.243H54.107L78.3975 277.224L55.1792 242.199ZM193.886 370H324.794C349.755 370 370 349.767 370 324.788V193.88H193.886V370ZM245.209 253.872H315.911V271.053H245.209V253.872ZM245.209 284.365H315.911V301.539H245.209V284.365Z" fill="#008DD2"/>
</g>
<defs>
<clipPath id="clip0">
<rect width="370" height="370" fill="white"/>
</clipPath>
</defs>
</svg>
