<svg width="512" height="512" viewBox="0 0 512 512" fill="#008dd2" xmlns="http://www.w3.org/2000/svg">
<path d="M51.32 443.36C43.96 443.36 39 440.96 36.44 436.16C35.48 434.56 35 433.28 35 432.32C35 431.36 35.32 430.56 35.96 429.92C65.08 408.48 99.64 374.88 139.64 329.12C119.8 318.24 104.44 305.28 93.56 290.24C82.68 274.88 77.24 260.8 77.24 248C77.24 234.88 81.24 224.64 89.24 217.28C97.24 209.92 108.92 206.24 124.28 206.24C153.4 206.24 178.2 223.04 198.68 256.64C207.64 245.44 221.88 227.2 241.4 201.92C261.24 176.64 275.64 158.56 284.6 147.68C293.56 136.48 304.6 123.36 317.72 108.32C342.04 81.44 360.44 68 372.92 68C382.52 68.32 387.32 73.44 387.32 83.36C387.32 93.92 383.64 108.48 376.28 127.04C369.24 145.28 363.48 159.84 359 170.72C354.84 181.28 348.44 195.52 339.8 213.44C331.48 231.04 324.92 245.12 320.12 255.68C315.32 265.92 307.96 281.28 298.04 301.76C288.12 321.92 281.24 336 277.4 344C302.04 342.4 321.56 338.08 335.96 331.04C338.52 329.76 340.12 328.32 340.76 326.72C341.4 325.12 342.2 324.32 343.16 324.32C344.44 324.32 345.56 324.96 346.52 326.24C347.8 327.52 348.44 328.8 348.44 330.08C348.44 340.96 323.48 348.48 273.56 352.64C261.08 378.56 252.44 397.28 247.64 408.8C246.36 411.36 244.44 412.64 241.88 412.64C235.16 412.64 231.8 406.24 231.8 393.44C230.52 383.52 228.28 369.92 225.08 352.64C199.8 350.72 176.12 345.12 154.04 335.84V336.32C140.28 353.28 124.76 370.72 107.48 388.64C90.52 406.24 76.92 419.68 66.68 428.96L51.32 443.36ZM259.64 344.48C332.92 192.16 369.56 107.2 369.56 89.6C369.56 84.16 367.64 81.44 363.8 81.44C358.04 81.44 349.88 87.2 339.32 98.72C329.08 110.24 320.76 119.84 314.36 127.52C307.96 135.2 299.48 145.92 288.92 159.68C278.36 173.12 269.56 184.32 262.52 193.28C255.8 202.24 246.2 215.2 233.72 232.16C221.24 248.8 211.96 261.12 205.88 269.12C215.8 287.68 224.76 312.16 232.76 342.56C240.44 343.84 249.4 344.48 259.64 344.48ZM193.4 263.84C174.52 231.2 152.12 214.88 126.2 214.88C114.68 214.88 106.04 217.28 100.28 222.08C94.52 226.88 91.64 234.08 91.64 243.68C91.64 252.96 96.92 264.64 107.48 278.72C118.36 292.48 132.92 304.64 151.16 315.2C160.76 304 174.84 286.88 193.4 263.84ZM200.12 276.8C189.88 290.56 178.04 305.92 164.6 322.88C183.48 331.84 202.68 337.92 222.2 341.12C215.48 314.24 208.12 292.8 200.12 276.8ZM255.32 353.6H235.16L240.92 383.84C244.76 376.16 249.56 366.08 255.32 353.6Z" fill="#008dd2"/>
<path d="M408.751 353.6C406.831 353.6 405.871 352.48 405.871 350.24L407.311 346.88C413.071 341.44 415.951 336.8 415.951 332.96C415.951 328.16 413.391 325.76 408.271 325.76C397.071 325.76 381.871 333.6 362.671 349.28C343.791 364.64 334.351 378.4 334.351 390.56C334.351 395.68 337.711 398.24 344.431 398.24C351.151 398.24 358.831 395.52 367.471 390.08C376.431 384.32 383.951 378.72 390.031 373.28C396.431 367.52 399.951 364.64 400.591 364.64C403.791 364.96 405.391 366.56 405.391 369.44C405.391 370.72 402.831 374.88 397.711 381.92C392.911 388.96 390.511 394.56 390.511 398.72C390.511 401.92 393.071 403.52 398.191 403.52C403.631 403.52 413.071 400.48 426.511 394.4C439.951 388 451.791 381.6 462.031 375.2L477.391 365.6C477.711 366.24 477.871 367.52 477.871 369.44C477.871 371.36 476.431 372.96 473.551 374.24C430.351 403.68 400.271 418.4 383.311 418.4C374.991 418.4 370.831 414.24 370.831 405.92C370.831 402.4 371.471 398.72 372.751 394.88C370.511 397.44 363.791 401.44 352.591 406.88C341.711 412 331.951 414.56 323.311 414.56C314.671 414.56 310.351 410.56 310.351 402.56C310.351 383.68 323.471 364.48 349.711 344.96C375.951 325.12 398.031 315.2 415.951 315.2C426.511 315.2 431.791 319.68 431.791 328.64C431.791 333.76 428.591 339.2 422.191 344.96C415.791 350.72 411.311 353.6 408.751 353.6Z" fill="#008dd2"/>
</svg>
